P2
91 149
256
256 256 256 256 256 256 256 256 256 256 256 256 256 256 256 256 256 256 256 256 256 256 256 256 256 256 256 256 256 256 256 256 256 256 256 256 256 256 256 256 256 256 256 256 256 256 256 256 256 256 256 205 256 213 205 103 256 256 256 256 256 256 256 256 256 256 256 256 256 256 256 256 256 256 256 256 256 256 256 256 256 256 256 256 256 256 256 256 256 256 256 
256 256 256 256 256 256 256 256 256 256 256 256 256 256 256 256 256 256 256 256 256 256 256 256 256 256 256 256 256 256 256 256 256 256 256 256 256 256 256 256 256 256 256 256 256 256 256 256 256 154 239 162 94 94 102 213 256 256 256 256 256 256 256 256 256 256 256 256 256 256 256 256 256 256 256 256 256 256 256 256 256 256 256 256 256 256 256 256 256 256 256 
256 256 256 256 256 256 256 256 256 256 256 256 256 256 256 256 256 256 256 256 256 256 256 256 256 256 256 256 256 256 256 256 256 256 256 256 256 256 256 256 256 256 256 256 256 256 256 256 213 162 51 51 51 51 51 68 188 256 256 256 256 256 256 256 256 256 256 256 256 256 256 256 256 256 256 256 256 256 256 256 256 256 256 256 256 256 256 256 256 256 256 
256 256 256 256 256 256 256 256 256 256 256 256 256 256 256 256 256 256 256 256 256 256 256 256 256 256 256 256 256 256 256 256 256 256 256 256 256 256 256 256 256 256 256 256 256 256 1 213 111 51 51 51 51 51 51 51 162 256 256 256 256 256 256 256 256 256 256 256 256 256 256 256 256 256 256 256 256 256 256 256 256 256 256 256 256 256 256 256 256 256 256 
256 256 256 256 256 256 256 256 256 256 256 256 256 256 256 256 256 256 256 256 256 256 256 256 256 256 256 256 256 256 256 256 256 256 256 256 256 256 256 256 256 256 256 256 256 256 213 145 51 51 51 51 51 51 51 51 188 103 256 256 256 256 256 256 256 154 205 239 213 205 162 256 256 256 256 256 256 256 256 256 256 256 256 256 256 256 256 256 256 256 256 
256 256 256 256 256 256 256 256 256 256 256 256 256 256 256 256 256 256 256 256 256 256 256 256 256 256 256 256 256 256 256 256 256 256 256 256 256 256 256 256 256 256 256 256 256 154 145 51 51 51 51 51 51 51 51 51 213 256 256 256 256 256 256 256 213 188 119 51 51 51 51 51 188 256 256 256 256 256 256 256 256 256 256 256 256 256 256 256 256 256 256 
256 256 256 256 256 256 256 256 256 256 256 256 256 256 256 256 256 256 256 256 256 256 256 256 256 256 256 256 256 256 256 256 256 256 256 256 256 256 256 256 256 256 256 256 256 188 51 51 51 51 51 51 51 51 51 119 256 162 162 205 162 103 256 188 119 51 51 51 51 51 51 51 102 205 256 256 256 256 256 256 256 256 256 256 256 256 256 256 256 256 256 
256 256 256 256 256 256 256 256 256 256 256 256 256 256 256 256 256 256 256 256 256 256 256 256 256 256 256 256 256 256 256 256 256 256 256 256 256 256 256 256 256 256 256 256 162 94 51 51 51 51 51 51 51 51 51 162 188 51 94 119 162 213 256 188 51 51 51 51 51 51 51 51 51 162 256 256 256 256 256 256 256 256 256 256 256 256 256 256 256 256 256 
256 256 256 256 256 256 256 256 256 256 256 256 256 256 256 256 256 256 256 256 256 256 256 256 256 256 256 256 256 256 256 256 256 256 256 256 256 256 256 256 256 256 256 256 188 51 51 51 51 51 51 51 51 51 51 256 119 51 51 51 51 51 119 188 256 145 51 51 51 51 51 51 51 119 256 256 256 256 256 256 256 256 256 256 256 256 256 256 256 256 256 
256 256 256 256 256 256 256 256 256 256 256 256 256 256 256 256 256 256 256 256 256 256 256 256 256 256 256 256 256 256 256 256 256 256 256 256 256 256 256 256 256 256 256 256 145 51 51 51 51 51 51 51 51 51 162 188 51 51 51 51 51 51 51 51 119 213 205 51 51 51 51 51 51 162 256 256 256 256 256 256 256 256 256 256 256 256 256 256 256 256 256 
256 256 256 256 256 256 256 256 256 256 256 256 256 256 256 256 256 256 256 256 256 256 256 256 256 256 256 256 256 256 256 256 256 256 256 256 256 256 256 256 256 256 256 162 119 51 51 51 51 51 51 51 51 119 256 94 51 51 51 51 51 51 51 51 51 51 188 256 94 51 51 51 51 205 256 256 256 256 256 256 256 256 256 256 256 256 256 256 256 256 256 
256 256 256 256 256 256 256 256 256 256 256 256 256 256 256 256 256 256 256 256 256 256 256 256 256 256 256 256 256 256 256 256 256 256 256 256 256 256 256 256 256 256 205 239 111 51 51 51 51 51 51 51 94 239 119 51 51 51 51 51 51 51 51 51 51 51 51 162 256 94 51 51 145 129 256 256 256 256 256 256 256 256 256 256 256 256 256 256 256 256 256 
256 256 256 256 256 256 256 256 256 256 256 256 256 256 256 256 256 256 256 256 256 256 256 256 256 256 256 256 256 256 256 256 256 256 256 256 256 256 256 256 256 213 119 102 119 51 51 51 51 51 51 51 205 102 51 51 51 51 51 51 51 51 51 51 51 51 51 51 162 213 51 68 213 256 256 256 256 256 256 256 256 256 256 256 256 256 256 256 256 256 256 
256 256 256 256 256 256 256 256 256 256 256 256 256 256 256 256 256 256 256 256 256 256 256 256 256 256 256 256 256 256 256 256 256 256 256 256 256 256 256 256 205 119 43 119 162 51 51 51 51 51 51 145 119 51 51 51 51 51 51 51 51 51 51 51 51 51 51 51 51 239 188 145 103 256 256 256 256 256 256 256 256 256 256 256 256 256 256 256 256 256 256 
256 256 256 256 256 256 256 256 256 256 256 256 256 256 256 256 256 256 256 256 256 256 256 256 256 256 256 256 256 256 256 256 256 256 256 256 256 256 256 162 145 51 51 51 188 145 51 51 51 51 51 68 51 51 51 51 51 51 51 51 51 51 51 51 51 51 51 51 51 119 256 103 256 256 256 256 256 256 256 256 256 256 256 256 256 256 256 256 256 256 256 
256 256 256 256 256 256 256 256 256 256 256 256 256 256 256 256 256 256 256 256 256 256 256 256 256 256 256 256 256 256 256 256 256 256 256 256 256 256 256 188 51 51 51 51 102 162 51 51 51 51 51 51 51 51 51 51 51 51 51 51 51 51 51 51 51 51 51 51 51 51 162 188 256 256 256 256 256 256 256 256 256 256 256 256 256 256 256 256 256 256 256 
256 256 256 256 256 256 256 256 256 256 256 256 256 256 256 256 256 256 256 256 256 256 256 256 256 256 256 256 256 256 256 256 256 256 256 256 256 256 213 94 51 51 51 51 51 51 51 51 51 51 51 51 51 51 51 51 51 51 51 51 51 51 51 51 51 51 51 51 51 51 51 205 103 256 256 256 256 256 256 256 256 256 256 256 256 256 256 256 256 256 256 
256 256 256 256 256 256 256 256 256 256 256 256 256 256 256 256 256 256 256 256 256 256 256 256 256 256 256 256 256 256 256 256 256 256 256 256 256 103 188 51 51 51 51 51 51 51 51 51 51 51 51 51 51 51 51 51 51 51 51 51 51 51 51 51 51 51 51 51 51 51 51 94 213 256 256 256 256 256 256 256 256 256 256 256 256 256 256 256 256 256 256 
256 256 256 256 256 256 256 256 256 256 256 256 256 256 256 256 256 256 256 256 256 256 256 256 256 256 256 256 256 256 256 256 256 256 256 256 256 205 102 51 51 51 51 51 51 51 51 51 51 51 51 51 51 51 51 51 51 51 51 51 51 51 51 51 51 51 51 51 51 51 51 51 119 137 256 256 256 256 256 256 256 256 256 256 256 256 256 256 256 256 256 
256 256 256 256 256 256 256 256 256 256 256 256 256 256 256 256 256 256 256 256 256 256 256 256 256 256 256 256 256 256 256 256 256 256 256 256 256 188 51 51 51 51 51 51 51 51 51 51 51 51 51 51 51 51 51 51 51 51 51 51 51 51 51 51 51 51 51 51 51 51 51 51 51 188 256 256 256 256 256 256 256 256 256 256 256 256 256 256 256 256 256 
256 256 256 256 256 256 256 256 256 256 256 256 256 256 256 256 256 256 256 256 256 256 256 256 256 256 256 256 256 256 256 256 256 256 256 256 154 119 51 51 51 51 51 51 51 51 51 51 51 51 51 51 51 51 51 51 51 51 51 51 51 51 51 51 51 51 51 51 51 51 51 51 51 94 162 256 256 256 256 256 256 256 256 256 256 256 256 256 256 256 256 
256 256 256 256 256 256 256 256 256 256 256 256 256 256 256 256 256 256 256 256 256 256 256 256 256 256 256 256 256 256 256 256 256 256 256 256 162 51 51 51 51 51 51 51 51 51 51 51 51 51 51 51 51 51 51 51 51 51 51 51 51 51 51 51 51 51 51 51 51 51 51 51 51 51 94 129 256 256 256 256 256 256 256 256 256 256 256 256 256 256 256 
256 256 256 256 256 256 256 256 256 256 256 256 256 256 256 256 256 256 256 256 256 256 256 256 256 256 256 256 256 256 256 256 256 256 256 256 162 51 51 51 51 51 51 51 51 51 51 51 51 51 51 51 51 51 51 51 51 51 51 51 51 51 51 51 51 51 51 51 51 51 51 51 51 51 51 119 137 256 256 256 256 256 256 256 256 256 256 256 256 256 256 
256 256 256 256 256 256 256 256 256 256 256 256 256 256 256 256 256 256 256 256 256 256 256 256 256 256 256 256 256 256 256 256 256 256 256 256 119 51 51 51 51 51 51 51 51 51 51 51 51 51 51 51 51 51 51 51 51 51 51 51 51 51 51 51 51 51 51 51 51 51 51 51 51 51 51 51 145 129 256 256 256 256 256 256 256 256 256 256 256 256 256 
256 256 256 256 256 256 256 256 256 256 256 256 256 256 256 256 256 256 256 256 256 256 256 256 256 256 256 256 256 256 256 256 256 256 256 103 94 51 51 51 51 51 51 51 51 51 51 51 51 51 51 51 51 51 51 51 51 51 51 51 51 51 51 51 51 51 51 51 51 51 51 51 51 51 51 51 51 145 154 256 256 256 256 256 256 256 256 256 256 256 256 
256 256 256 256 256 256 256 256 256 256 256 256 256 256 256 256 256 256 256 256 256 256 256 256 256 256 256 256 256 256 256 256 256 256 256 111 51 51 51 51 51 51 51 51 51 51 51 51 51 51 51 51 51 51 51 51 51 51 51 51 51 51 51 51 51 51 51 51 51 51 51 51 51 51 51 51 51 51 119 154 256 256 256 256 256 256 256 256 256 256 256 
256 256 256 256 256 256 256 256 256 256 256 256 256 256 256 256 256 256 256 256 256 256 256 256 256 256 256 256 256 256 256 256 256 256 256 119 51 51 51 51 51 51 51 51 51 51 51 51 51 51 51 51 51 51 51 51 51 51 51 51 51 51 51 51 51 51 51 51 51 51 51 51 51 51 51 51 51 51 51 188 103 256 256 256 256 256 256 256 256 256 256 
256 256 256 256 256 256 256 256 256 256 256 256 256 256 256 256 256 256 256 256 256 256 256 256 256 256 256 256 256 256 256 256 256 256 256 94 51 51 51 51 51 51 51 51 51 51 51 51 51 51 51 51 51 51 51 51 51 51 51 51 51 51 51 51 51 51 196 239 205 94 51 51 51 51 51 51 51 51 51 162 213 256 256 256 256 256 256 256 256 256 256 
256 256 256 256 256 256 256 256 256 256 256 256 256 256 256 256 256 256 256 256 256 256 256 256 256 256 256 256 256 256 256 256 256 256 256 51 51 51 51 51 51 51 51 51 51 51 51 51 51 51 51 51 51 51 51 51 51 51 51 51 51 51 51 51 51 145 119 94 102 51 51 51 51 51 51 51 51 51 51 162 137 256 256 256 256 256 256 256 256 256 256 
256 256 256 256 256 256 256 256 256 256 256 256 256 256 256 256 256 256 256 256 256 256 256 256 256 256 256 256 256 256 256 256 256 256 154 51 51 51 51 51 51 51 51 51 51 51 51 51 51 51 51 51 51 51 51 51 51 51 51 51 51 51 51 51 102 94 51 51 51 51 51 51 51 51 51 51 51 51 51 213 256 256 256 256 256 256 256 256 256 256 256 
256 256 256 256 256 256 256 256 256 256 256 256 256 256 256 256 256 256 256 256 256 256 256 256 256 256 256 256 256 221 204 239 188 162 119 51 51 51 51 51 51 51 51 51 51 51 51 51 51 51 51 51 51 51 51 51 51 51 51 51 51 51 51 51 51 51 51 51 51 51 51 51 51 51 51 51 51 51 162 154 256 256 256 256 256 256 256 256 256 256 256 
256 256 256 256 256 256 256 256 256 256 256 256 256 256 256 256 256 256 256 256 256 256 256 256 256 256 256 256 186 186 186 186 204 188 51 51 51 51 51 51 51 51 51 51 51 51 51 51 51 51 51 51 51 51 51 51 51 51 51 51 51 51 51 51 51 51 51 51 51 51 51 51 51 51 51 51 51 119 137 256 256 256 256 256 256 256 256 256 256 256 256 
256 256 256 256 256 256 256 256 256 256 256 256 256 256 256 256 256 256 256 256 256 256 256 256 256 256 256 256 204 186 186 186 221 94 51 51 51 51 51 51 51 51 51 51 51 51 51 51 51 51 51 51 51 51 51 51 51 51 51 51 51 51 51 51 51 51 51 51 51 51 51 51 51 51 51 51 145 256 256 256 256 256 256 256 256 256 256 256 256 256 256 
256 256 256 256 256 256 256 256 256 256 256 256 256 256 256 256 256 256 256 256 256 256 256 256 256 256 256 256 221 186 186 221 145 51 51 51 51 51 51 51 51 51 51 51 51 51 51 51 51 51 51 51 51 51 51 51 51 51 51 51 51 51 51 51 51 51 68 188 213 51 51 51 51 51 51 68 137 256 256 256 256 256 256 256 256 256 256 256 256 256 256 
256 256 256 256 256 256 256 256 256 256 256 256 256 256 256 256 256 256 256 256 256 256 256 256 256 256 256 256 221 204 186 162 51 51 51 51 51 51 51 51 51 51 51 51 51 51 51 51 51 51 51 51 51 51 51 51 51 51 51 51 51 51 51 51 51 51 213 256 205 51 51 51 51 51 51 51 162 129 256 256 256 256 256 256 256 256 256 256 256 256 256 
256 256 256 256 256 256 256 256 256 256 256 256 256 256 256 256 256 256 256 256 256 256 256 256 256 256 256 256 186 204 188 51 51 51 51 51 51 51 51 51 51 51 51 51 51 51 51 51 51 51 51 51 51 51 51 51 51 51 51 51 51 51 51 51 51 162 256 256 145 51 51 51 51 51 51 51 51 145 162 256 256 256 256 256 256 256 256 256 256 256 256 
256 256 256 256 256 256 256 256 256 256 256 256 256 256 256 256 256 256 256 256 256 256 256 256 256 256 256 256 153 186 196 51 51 51 51 51 51 51 51 51 51 51 51 51 51 51 51 51 51 51 51 51 51 51 51 51 51 51 51 51 51 51 51 51 51 94 170 145 51 51 51 51 51 51 51 51 51 51 51 94 256 256 256 256 256 256 256 256 256 256 256 
256 256 256 256 256 256 256 256 256 256 256 256 256 256 256 256 256 256 256 256 256 256 256 256 256 256 256 256 186 186 221 145 51 51 51 51 51 51 51 51 51 51 51 51 51 51 51 51 51 51 51 51 51 51 51 51 51 51 51 51 51 51 51 51 51 51 51 51 51 51 51 51 51 51 51 51 51 51 51 51 51 162 256 256 256 256 256 256 256 256 256 
256 256 256 256 256 256 256 256 256 256 256 256 256 256 256 256 256 256 256 256 256 256 256 256 256 256 256 256 153 186 186 204 68 51 51 51 51 51 51 51 51 51 51 51 51 51 51 51 51 51 51 51 51 51 51 51 51 51 51 51 51 51 51 51 51 51 51 51 51 51 51 51 51 51 51 51 51 51 51 51 51 51 213 103 256 256 256 256 256 256 256 
256 256 256 256 256 256 256 256 256 256 256 256 256 256 256 256 256 256 256 256 256 256 256 256 256 256 256 256 186 186 186 186 188 51 51 51 51 51 51 51 51 51 51 51 51 51 51 51 51 51 51 51 51 51 51 51 51 51 51 51 51 51 51 51 51 51 51 51 51 51 51 51 51 51 51 51 51 51 51 51 51 51 94 213 256 256 256 256 256 256 256 
256 256 256 256 256 256 256 256 256 256 256 256 256 256 256 256 256 256 256 256 256 256 256 256 256 256 256 256 153 186 186 186 204 162 51 51 51 51 51 51 51 51 51 51 51 51 51 51 51 51 51 51 51 51 51 51 51 51 51 51 51 51 51 51 51 51 51 51 51 51 51 51 51 51 51 51 51 51 51 51 162 196 162 205 188 256 256 256 256 256 256 
256 256 256 256 256 256 256 256 256 256 256 256 256 256 256 256 256 256 256 256 256 256 256 256 256 256 256 256 186 186 186 186 186 204 162 51 51 51 51 51 51 51 51 51 51 51 51 51 51 51 51 51 51 51 51 51 51 51 51 51 51 51 51 51 51 51 51 51 51 51 51 51 51 51 51 51 51 51 51 170 256 256 256 256 256 256 256 256 256 256 256 
256 256 256 256 256 256 256 256 256 256 256 256 256 256 256 256 256 256 256 256 256 256 256 256 256 256 256 256 186 186 186 186 186 186 204 119 51 51 51 51 51 51 51 51 51 51 51 51 51 51 51 51 51 51 51 51 51 51 51 51 51 51 51 51 51 51 51 51 51 51 51 51 51 51 51 51 51 51 51 205 256 256 256 256 256 103 256 256 256 256 256 
256 256 256 256 256 256 256 256 256 256 256 256 256 256 256 256 256 256 256 256 256 256 256 256 256 256 256 256 186 186 186 186 186 186 186 239 94 51 51 51 51 51 51 51 51 51 51 51 51 51 51 51 51 51 51 51 51 51 51 51 51 51 51 51 51 51 51 51 51 51 51 51 51 51 51 51 51 51 51 205 256 256 256 256 256 256 256 256 256 256 256 
256 256 256 256 256 256 256 256 256 256 256 256 256 256 256 256 256 256 256 256 256 256 256 256 256 256 256 196 186 186 186 186 161 186 186 186 221 94 51 51 51 51 51 51 51 51 51 51 51 51 51 51 51 51 51 51 51 51 51 51 51 51 51 102 68 51 51 51 51 51 51 51 51 51 51 51 51 51 51 162 256 256 256 256 256 256 256 256 256 256 256 
256 256 256 256 256 256 256 256 256 256 256 256 256 256 256 256 256 256 256 256 256 256 256 256 256 256 145 186 186 178 161 186 186 178 186 186 204 196 68 51 51 51 51 51 51 51 51 51 51 51 51 51 51 51 51 51 51 51 51 51 51 94 213 256 239 94 51 51 51 51 51 51 51 51 51 51 51 51 51 102 256 256 256 256 162 256 256 256 256 256 256 
256 256 256 256 256 256 256 256 256 256 256 256 256 256 256 256 256 256 256 256 256 256 256 256 256 256 221 186 186 186 186 186 186 186 186 186 186 204 213 51 51 51 51 51 51 51 51 51 51 51 51 51 51 51 51 51 51 51 51 51 102 162 145 239 231 51 51 51 51 51 51 51 51 51 51 51 51 51 51 51 162 256 256 256 256 256 256 256 256 256 256 
256 256 256 256 256 256 256 256 256 256 256 256 256 256 256 256 256 256 256 256 256 256 256 256 256 196 186 186 186 186 186 186 186 186 186 186 186 186 204 205 51 51 51 51 51 51 51 51 51 51 51 51 51 51 51 51 51 51 51 51 94 51 68 256 256 162 51 51 51 51 51 51 51 51 51 51 51 51 51 51 51 162 239 154 256 256 256 256 256 256 256 
256 256 256 256 256 256 256 256 256 256 256 256 256 256 256 256 256 256 256 256 256 256 256 256 256 186 186 186 186 186 186 186 186 186 186 161 186 186 186 186 213 51 51 51 51 51 51 51 51 51 51 51 51 51 51 51 51 51 51 51 51 51 94 256 256 256 94 51 51 51 51 51 51 51 51 51 51 51 51 51 51 119 205 256 256 256 256 256 256 256 256 
256 256 256 256 256 256 256 256 256 256 256 256 256 256 256 256 256 256 256 256 256 256 256 256 256 204 186 186 186 186 153 186 186 186 186 186 178 186 186 186 204 196 68 51 51 51 51 51 51 51 51 51 51 51 51 51 51 51 51 51 51 51 119 256 256 256 205 51 51 51 51 51 51 51 51 51 51 51 51 51 119 205 256 256 256 256 256 256 256 256 256 
256 256 256 256 256 256 256 256 256 256 256 256 256 256 256 256 256 256 256 256 256 256 256 256 256 204 186 186 178 186 186 186 186 186 178 186 186 186 186 186 186 204 196 94 51 51 51 51 51 51 51 51 51 51 51 51 51 51 51 51 51 51 51 239 256 256 256 145 51 51 51 51 51 51 51 51 51 51 51 145 162 256 256 256 256 256 256 256 256 256 256 
256 256 256 256 256 256 256 256 256 256 256 256 256 256 256 256 256 256 256 256 256 256 256 256 154 186 186 186 186 186 186 186 186 186 161 186 186 186 186 186 186 186 186 239 94 51 51 51 51 51 51 51 51 51 51 51 51 51 51 51 51 51 51 188 256 256 256 256 145 51 51 51 51 51 51 51 51 119 162 103 256 256 256 256 256 256 256 256 256 256 256 
256 256 256 256 256 256 256 256 256 256 256 256 256 256 256 256 256 256 256 256 256 256 256 256 188 186 186 186 186 161 186 186 186 186 186 186 186 186 186 161 186 186 186 186 221 119 51 51 51 51 51 51 51 51 51 51 51 51 51 51 51 51 51 119 256 256 256 256 205 102 51 51 51 68 102 162 188 129 256 256 256 256 256 256 256 256 256 256 256 256 256 
256 256 256 256 256 256 256 256 256 256 256 256 256 256 256 256 256 256 256 256 256 256 256 256 221 186 186 161 186 186 186 178 186 186 186 186 186 161 186 178 186 186 186 186 186 221 162 51 51 51 51 51 51 51 51 51 51 51 51 51 51 51 51 51 213 256 256 256 145 68 162 111 94 103 103 256 256 256 256 256 256 256 256 256 256 256 256 256 256 256 256 
256 256 256 256 256 256 256 256 256 256 256 256 256 256 256 256 256 256 256 256 256 256 256 154 186 186 186 186 186 186 186 186 186 161 186 186 186 178 186 186 186 186 186 186 186 186 221 162 51 51 51 51 51 51 51 51 51 51 51 51 51 51 51 51 145 256 256 256 119 162 256 256 256 256 256 256 256 256 256 256 256 256 256 256 256 256 256 256 256 256 256 
256 256 256 256 256 256 256 256 256 256 256 256 256 256 256 256 256 256 256 256 256 256 256 221 186 186 186 178 186 186 186 186 186 186 178 186 186 186 186 186 186 186 161 186 186 186 186 204 162 51 51 51 51 51 51 51 51 51 51 51 51 51 51 51 68 239 256 205 94 162 256 256 256 256 256 256 256 256 256 256 256 256 256 256 256 256 256 256 256 256 256 
256 256 256 256 256 256 256 256 256 256 256 256 256 256 256 256 256 256 256 256 256 256 103 221 186 186 186 186 186 186 161 186 186 186 186 186 186 186 186 186 186 186 178 186 186 186 186 186 221 188 68 51 51 51 51 51 51 51 51 51 51 51 51 51 51 119 188 102 188 103 256 256 256 256 256 256 256 256 256 256 256 256 256 256 256 256 256 256 256 256 256 
256 256 256 256 256 256 256 256 256 256 256 256 256 256 256 256 256 256 256 256 256 256 196 186 186 186 186 186 186 186 186 186 186 186 186 186 186 186 186 186 178 186 186 186 186 186 186 186 186 204 221 119 51 51 51 51 51 51 51 51 51 51 51 51 51 51 51 94 170 162 162 162 145 162 162 162 196 162 154 103 256 256 256 256 256 256 256 256 256 256 256 
256 256 256 256 256 256 256 256 256 256 256 256 256 256 256 256 256 256 256 256 256 103 186 186 186 186 161 186 186 178 186 186 186 178 161 186 186 161 186 186 186 161 186 186 186 161 186 186 186 186 186 221 162 51 51 51 51 51 51 51 51 51 51 162 213 239 239 162 51 51 51 51 51 51 51 51 51 51 51 94 145 162 103 256 256 256 256 256 256 256 256 
256 256 256 256 256 256 256 256 256 256 256 256 256 256 256 256 256 256 256 256 256 204 186 186 186 186 178 186 186 186 186 186 161 186 186 186 186 178 186 186 186 186 186 186 204 204 186 186 186 186 186 186 239 188 51 51 51 51 51 51 51 119 188 205 221 186 186 178 51 51 51 51 51 51 51 51 51 51 51 51 51 51 119 162 256 256 256 256 256 256 256 
256 256 256 256 256 256 256 256 256 256 256 256 256 256 256 256 256 256 256 162 204 186 186 186 178 186 186 186 186 186 186 186 186 186 186 186 186 186 186 186 186 186 186 186 186 204 221 221 186 186 186 186 186 221 213 119 51 51 51 51 51 51 51 68 239 186 186 239 51 51 51 51 51 51 51 51 51 51 51 51 51 51 51 51 119 188 256 256 256 256 256 
256 256 256 256 256 256 256 256 256 256 256 256 256 256 256 256 256 256 256 221 186 186 186 186 186 186 186 186 161 186 186 186 186 186 186 186 186 186 186 186 186 186 186 186 186 186 186 221 221 204 186 186 186 186 186 221 162 51 51 51 51 51 51 51 239 186 204 162 51 51 51 51 51 51 51 51 51 51 51 51 51 51 51 51 51 94 162 256 256 256 256 
256 256 256 256 256 256 256 256 256 256 256 256 256 256 256 256 256 256 256 221 186 186 186 161 186 186 186 186 186 186 178 186 186 186 178 186 186 186 161 186 178 186 186 161 178 186 186 186 204 221 204 186 186 186 186 186 204 239 102 51 51 51 51 102 221 186 204 119 51 51 51 51 51 51 51 51 51 51 51 51 51 51 51 51 51 51 102 162 256 256 256 
256 256 256 256 256 256 256 256 256 256 256 256 256 256 256 256 256 256 256 103 239 186 186 186 186 186 186 186 178 186 186 186 186 186 186 161 186 186 178 186 186 186 186 186 186 186 186 186 186 186 204 204 186 186 186 186 186 186 221 188 94 51 51 145 204 186 221 145 51 51 51 51 51 51 51 51 51 51 51 51 51 51 51 51 51 51 51 119 154 256 256 
256 256 256 256 256 256 256 256 256 256 256 256 256 256 256 256 256 256 256 256 239 204 186 186 178 186 186 161 186 186 186 161 186 186 186 186 186 186 186 186 186 186 186 186 186 186 186 186 186 186 186 221 186 186 153 186 186 186 186 204 221 162 94 162 186 186 256 162 51 51 51 51 51 51 51 51 51 51 51 51 51 51 51 51 51 51 51 51 205 103 256 
256 256 256 256 256 256 256 256 256 256 256 256 256 256 256 256 256 256 256 256 256 221 186 186 186 161 186 186 186 186 186 186 186 186 186 186 186 186 186 186 161 186 186 186 186 186 186 161 178 186 186 204 204 186 204 186 186 186 186 186 186 221 256 221 186 186 256 188 51 51 51 102 51 51 51 51 51 51 51 51 51 51 51 51 51 51 94 51 170 205 256 
256 256 256 256 256 256 256 256 256 256 256 256 256 256 256 256 256 256 256 154 94 213 221 186 186 186 186 186 186 186 186 186 186 178 186 204 186 178 186 186 186 178 186 186 161 178 186 186 186 186 186 204 204 186 221 186 186 186 186 186 186 186 186 239 186 186 221 213 51 51 51 68 145 51 51 51 51 51 51 51 51 51 51 51 51 119 196 162 239 145 188 
256 256 256 256 256 256 256 256 256 256 256 256 256 256 256 256 256 256 256 145 51 119 256 186 186 186 186 186 178 204 186 186 186 186 186 221 186 186 186 186 186 186 186 186 186 186 186 186 186 186 186 186 239 186 221 186 186 186 186 186 186 186 186 186 186 186 204 205 51 51 51 51 162 119 51 51 51 51 51 51 51 51 51 51 119 196 68 51 68 76 170 
256 256 256 256 256 256 256 256 256 256 256 256 256 256 256 256 256 256 256 94 51 51 154 239 186 186 178 186 186 186 204 186 161 186 221 204 186 186 161 186 186 186 186 186 186 186 186 186 186 186 186 186 221 204 221 186 186 153 186 204 186 161 186 186 186 186 186 221 68 51 51 51 162 239 68 51 51 51 51 51 51 51 51 94 188 94 51 51 51 94 154 
256 256 256 256 256 256 256 256 256 256 256 256 256 256 256 256 256 256 145 51 51 51 51 213 186 186 186 186 186 186 204 186 186 186 221 204 186 186 186 186 186 186 186 186 186 186 186 186 161 186 186 186 186 239 221 186 186 221 170 145 127 170 127 170 204 186 186 221 94 51 51 51 162 162 213 162 145 119 145 145 68 102 119 162 170 51 51 51 110 162 256 
256 256 256 256 256 256 256 256 256 256 256 256 256 256 256 256 256 256 51 51 51 51 51 94 239 186 186 186 161 186 204 204 186 186 204 204 186 186 186 186 178 161 186 186 178 186 161 178 186 186 186 186 186 239 239 186 221 162 127 127 127 127 127 127 127 162 221 256 188 119 145 162 196 51 76 68 51 51 51 162 213 110 51 51 51 51 51 51 188 256 256 
256 256 256 256 256 256 256 256 256 256 256 256 256 256 256 256 256 111 51 51 51 51 51 51 145 221 186 186 186 186 186 204 186 186 239 186 186 186 178 186 186 186 186 186 161 186 186 186 186 186 186 178 186 204 256 221 205 127 127 127 127 127 127 127 127 127 127 196 256 213 103 256 103 119 51 51 51 51 51 51 76 51 51 51 51 51 51 94 103 256 256 
256 256 256 256 256 256 256 256 256 256 256 256 256 256 256 256 256 51 51 51 51 51 51 51 51 162 204 186 186 186 186 204 186 186 221 204 186 186 186 186 186 186 186 186 186 186 186 186 186 186 186 186 186 204 256 204 196 127 127 127 127 127 170 170 127 127 127 127 127 188 188 256 256 256 111 102 51 51 51 51 51 51 51 51 51 51 51 145 256 256 256 
256 256 256 256 256 256 256 256 256 256 256 256 256 256 256 256 94 51 51 51 51 51 51 51 51 51 188 221 186 186 186 186 186 186 239 186 186 186 161 186 186 186 186 186 186 186 186 186 186 161 186 186 186 186 239 221 221 127 127 127 127 127 127 196 256 127 127 127 127 127 145 196 162 45 256 256 145 68 51 51 51 51 51 51 51 51 162 103 256 256 256 
256 256 256 256 256 256 256 256 256 256 256 256 256 256 256 256 51 51 51 51 51 51 51 51 51 51 51 162 221 186 186 186 221 186 256 204 186 186 186 186 186 186 186 178 186 186 186 186 178 186 186 186 186 186 204 221 239 127 127 127 127 127 127 127 178 256 162 127 127 127 127 127 145 213 137 256 256 188 213 162 94 51 51 51 51 110 188 256 256 256 256 
256 256 256 256 256 256 256 256 256 256 256 256 256 256 256 94 51 51 51 51 51 51 51 51 51 51 51 51 162 204 186 186 204 204 256 204 186 186 186 186 178 161 186 186 186 186 186 186 186 186 186 186 186 186 186 221 239 213 127 127 127 127 127 127 127 162 256 213 127 127 127 127 127 127 188 188 256 256 103 205 239 196 162 145 145 162 256 256 256 256 256 
256 256 256 256 256 256 256 256 256 256 256 256 256 256 256 51 51 51 51 51 51 51 51 51 51 51 51 51 51 162 221 204 186 239 256 186 186 186 178 186 186 186 186 186 186 161 186 186 186 186 186 153 186 186 186 239 145 145 170 127 127 127 127 127 127 127 127 196 256 162 127 127 127 127 127 145 188 154 256 256 256 103 154 129 103 256 256 256 256 256 256 
256 256 256 256 256 256 256 256 256 256 256 256 256 256 94 51 51 51 51 51 51 51 51 51 51 51 51 51 51 51 119 196 221 221 256 186 186 186 186 186 186 186 186 186 186 178 204 204 239 170 196 170 239 204 204 204 196 127 162 127 127 127 127 127 127 127 127 127 127 213 213 153 127 127 127 127 127 162 162 256 256 256 256 256 256 256 256 256 256 256 256 
256 256 256 256 256 256 256 256 256 256 256 256 256 256 51 51 51 51 51 51 51 51 51 51 51 51 51 51 51 51 51 51 119 205 256 186 186 186 161 186 186 186 186 186 204 221 162 119 51 51 51 51 51 119 188 239 239 127 127 170 153 127 127 127 127 127 127 127 127 127 162 239 196 127 127 127 127 127 127 196 103 256 256 256 256 256 256 256 256 256 256 
256 256 256 256 256 256 256 256 256 256 256 256 256 111 51 51 51 51 51 51 51 51 51 51 51 51 51 51 51 51 51 51 51 51 239 204 186 186 186 186 186 186 153 204 205 94 51 51 51 51 51 51 51 51 51 119 239 188 127 127 196 170 127 127 127 127 127 127 127 127 127 127 170 239 162 127 127 127 127 127 162 188 256 256 256 256 256 256 256 256 256 
256 256 256 256 256 256 256 256 256 256 256 256 256 51 51 51 51 51 51 51 51 51 51 51 51 51 51 51 51 51 51 51 51 51 188 204 186 186 186 186 186 186 239 145 51 51 51 51 51 51 51 51 51 51 51 51 94 213 170 127 127 196 239 145 127 127 127 127 127 127 127 127 127 145 213 239 145 127 127 127 127 127 188 256 256 256 256 256 256 256 256 
256 256 256 256 256 256 256 256 256 256 256 256 162 51 51 51 51 51 51 51 51 51 51 51 51 51 51 51 51 51 51 51 51 51 162 204 186 186 178 186 186 221 145 51 51 51 51 51 51 51 51 51 51 51 51 51 51 145 196 110 127 127 162 239 196 127 127 127 127 127 127 127 127 127 127 127 213 213 153 127 127 127 127 162 154 256 256 256 256 256 256 
256 256 256 256 256 256 256 256 256 256 256 256 119 51 51 51 51 51 51 51 51 51 51 51 51 51 51 51 51 51 51 51 51 51 94 221 186 186 161 186 221 162 51 51 51 51 51 51 51 51 51 51 51 51 51 51 51 51 145 162 127 127 127 127 239 205 127 127 127 127 127 127 127 127 127 127 127 170 213 205 127 127 127 127 127 162 256 256 256 256 256 
256 256 256 256 256 256 256 256 256 256 256 256 94 51 51 51 51 51 51 51 51 51 51 51 51 51 51 51 51 51 51 51 51 51 51 196 186 186 186 186 205 51 51 51 51 51 51 51 51 51 51 51 51 51 51 51 51 51 51 145 145 127 127 127 127 196 239 162 127 127 127 127 127 127 127 127 127 127 127 145 196 213 162 153 127 145 188 256 256 256 256 
256 256 256 256 256 256 256 256 256 256 256 162 51 51 51 51 51 51 51 51 51 51 51 51 51 51 51 51 51 51 51 51 51 51 51 119 221 186 186 204 145 51 51 51 51 51 51 51 51 51 51 51 51 51 51 51 51 51 51 51 145 162 127 127 127 127 145 239 213 127 127 127 127 127 127 127 127 127 127 127 127 127 170 196 196 196 145 188 256 256 256 
256 256 256 256 256 256 256 256 256 256 256 145 51 51 51 51 51 51 51 51 51 51 51 51 51 51 51 51 51 51 51 51 51 51 51 51 239 186 186 188 51 51 51 51 51 51 51 51 51 51 51 51 51 51 51 51 51 51 51 51 51 145 196 127 127 127 127 127 188 239 162 127 127 127 127 127 127 127 127 127 127 127 127 127 145 145 170 145 196 256 256 
256 256 256 256 256 256 256 256 256 256 256 119 51 51 51 51 51 51 51 51 51 51 51 51 51 51 51 51 51 51 51 51 51 51 51 51 145 221 186 178 51 51 51 51 51 51 51 51 51 51 51 51 51 51 51 51 51 51 51 51 51 51 145 196 127 127 127 127 127 145 239 196 127 127 127 127 127 127 127 127 127 127 127 127 127 127 127 127 127 103 256 
256 256 256 256 256 256 256 256 256 256 256 94 51 51 51 51 51 51 51 51 51 51 51 51 51 51 51 51 51 51 51 51 51 51 51 51 51 196 204 162 51 51 51 51 51 51 51 51 51 51 51 51 51 51 51 51 51 51 51 51 51 51 51 145 196 127 127 127 127 127 127 127 170 127 127 127 127 127 127 127 127 127 127 127 127 127 127 127 127 188 256 
256 256 256 256 256 256 256 256 256 256 256 51 51 51 51 51 51 51 51 51 51 51 51 51 51 51 51 51 51 51 51 51 51 51 51 51 51 119 221 162 51 51 51 51 51 51 51 51 51 51 51 51 51 51 51 51 51 51 51 51 51 51 51 51 145 205 127 127 127 127 127 127 127 127 127 127 127 127 127 127 127 127 127 127 127 127 127 127 127 196 256 
256 256 256 256 256 256 256 256 256 256 256 94 51 51 51 51 51 51 51 51 51 51 51 51 51 51 51 51 51 51 51 51 51 51 51 51 51 51 162 213 51 51 51 51 51 51 51 51 51 51 51 51 51 51 51 51 51 51 51 51 51 51 51 51 51 145 213 127 127 127 127 127 127 127 127 127 127 127 127 153 170 127 170 127 127 127 127 127 127 188 256 
256 256 256 256 256 256 256 256 256 256 256 102 51 51 51 51 51 51 51 51 51 51 51 51 51 51 51 51 51 51 51 51 51 51 51 51 51 51 51 205 94 51 51 51 51 51 51 51 51 51 51 51 51 51 51 51 51 51 51 51 51 51 51 51 51 51 119 196 127 127 127 127 127 127 127 127 127 127 127 127 170 162 213 239 213 170 145 153 213 256 256 
256 256 256 256 256 256 256 256 256 256 256 51 51 51 51 51 51 51 51 51 51 51 51 51 51 51 51 51 51 51 51 51 51 51 51 51 51 51 51 51 196 51 51 51 51 51 51 51 51 51 51 51 51 51 51 51 51 51 51 51 51 51 51 51 51 51 51 145 196 127 127 127 127 127 127 127 127 127 127 127 127 127 127 145 178 256 137 256 256 256 256 
256 256 256 256 256 256 256 256 256 256 256 94 51 51 51 51 51 51 51 51 51 51 51 51 51 51 51 51 51 51 51 51 51 51 51 51 51 51 51 51 119 188 51 51 51 51 51 51 51 51 51 51 51 51 51 51 51 51 51 51 51 51 51 51 51 51 51 51 145 188 127 127 127 127 127 127 127 127 127 127 127 127 127 127 127 170 256 256 256 256 256 
256 256 256 256 256 256 256 256 256 256 256 51 51 51 51 51 51 51 51 51 51 51 51 51 51 51 51 51 51 51 51 51 51 51 51 51 51 51 51 51 119 256 162 51 51 51 51 51 51 51 51 51 51 51 51 51 51 51 51 51 51 51 51 51 51 51 51 51 51 162 178 127 127 127 127 127 127 127 127 127 127 127 127 127 127 170 256 256 256 256 256 
256 256 256 256 256 256 256 256 256 256 256 68 51 51 51 51 51 51 51 51 51 51 51 51 51 51 51 51 51 51 51 51 51 51 51 51 51 51 51 51 188 213 145 145 51 51 51 51 51 51 51 51 51 51 51 51 51 51 51 51 51 51 51 51 51 51 51 51 51 51 188 196 127 127 127 127 127 127 127 127 127 127 127 127 127 127 256 256 256 256 256 
256 256 256 256 256 256 256 256 256 256 256 94 51 51 51 51 51 51 51 51 51 51 51 51 51 51 51 51 51 51 51 51 51 51 51 51 51 51 51 51 256 145 110 127 119 51 51 51 51 51 51 51 51 51 51 51 51 51 51 51 51 51 51 51 51 51 51 51 51 51 51 213 145 127 127 127 127 127 127 127 127 170 127 127 127 170 256 256 256 256 256 
256 256 256 256 256 256 256 256 256 256 256 119 51 51 51 51 51 51 51 51 51 51 51 51 51 51 51 51 51 51 51 51 51 51 51 51 51 51 51 119 239 110 110 110 110 94 51 51 51 51 51 51 51 51 51 51 51 51 51 51 51 51 51 51 51 51 51 51 51 51 51 119 205 127 127 127 127 127 127 170 127 213 213 162 153 170 256 256 256 256 256 
256 256 256 256 256 256 256 256 256 256 256 145 51 51 51 51 51 51 51 51 51 51 51 51 51 51 51 51 51 51 51 51 51 51 51 51 51 51 51 145 196 110 110 110 110 110 94 51 51 51 51 51 51 51 51 51 51 51 51 51 51 51 51 51 51 51 51 51 51 51 51 51 162 178 127 127 127 127 127 170 205 196 170 127 127 162 256 256 256 256 256 
256 256 256 256 256 256 256 256 256 256 256 162 51 51 51 51 51 51 51 51 51 51 51 51 51 51 51 51 51 51 51 51 51 51 51 51 51 51 51 162 145 110 110 110 110 110 110 110 51 51 51 51 51 51 51 51 51 51 51 51 51 51 51 51 51 51 51 51 51 51 51 51 94 213 127 127 127 127 127 127 178 196 188 145 153 213 256 256 256 256 256 
256 256 256 256 256 256 256 256 256 256 256 154 51 51 51 51 51 51 51 51 51 51 94 145 162 170 162 102 68 51 51 51 51 51 51 51 51 51 51 205 110 110 110 110 110 110 110 110 127 94 51 51 51 51 51 51 51 51 51 51 51 51 51 51 51 51 51 51 51 51 51 51 51 188 145 127 127 153 145 127 127 127 127 127 127 213 256 256 256 256 256 
256 256 256 256 256 256 256 256 256 256 256 256 119 51 51 51 51 51 51 51 51 119 145 119 76 68 76 119 188 145 51 51 51 51 51 51 51 51 51 196 127 110 110 110 110 110 110 110 110 110 119 51 51 51 51 51 51 51 51 51 51 51 51 51 51 51 51 51 51 51 51 51 51 145 170 127 127 127 127 196 162 127 170 127 127 188 256 256 256 256 256 
256 256 256 256 256 256 256 256 256 256 256 256 145 51 51 51 51 51 51 94 145 94 51 51 51 51 51 51 68 188 162 51 51 51 51 51 51 51 51 213 110 110 110 110 110 110 110 110 110 110 110 162 102 51 51 51 51 51 51 51 51 51 51 51 51 51 51 51 51 51 51 51 51 119 170 127 127 127 127 127 153 196 178 162 145 188 256 256 256 256 256 
256 256 256 256 256 256 256 256 256 256 256 256 162 51 51 51 51 51 119 162 51 51 51 51 51 51 51 51 51 51 188 119 51 51 51 51 51 51 51 196 110 110 110 110 110 110 110 110 110 110 110 110 213 145 51 51 51 51 51 51 51 51 51 51 51 51 51 51 51 51 51 51 51 94 196 127 127 127 127 196 145 127 127 127 153 256 256 256 256 256 256 
256 256 256 256 256 256 256 256 256 256 256 256 256 94 51 51 51 119 145 51 51 51 51 51 51 51 51 51 51 51 119 188 51 51 51 51 51 51 68 196 110 110 110 110 110 110 110 110 110 110 110 110 110 162 162 102 51 51 51 51 51 51 51 51 51 51 51 51 51 51 51 51 51 94 178 127 127 127 170 178 205 213 162 127 170 256 256 256 256 256 256 
256 256 256 256 256 256 256 256 256 256 256 256 256 145 51 51 119 162 51 51 51 51 51 51 51 51 51 51 51 51 51 188 76 51 51 51 51 51 51 213 110 110 110 110 110 110 110 110 110 110 110 110 110 110 110 162 196 145 51 51 51 51 51 51 51 51 51 51 51 51 51 51 51 76 239 145 127 127 127 127 127 127 127 127 188 256 256 256 256 256 256 
256 256 256 256 256 256 256 256 256 256 256 256 256 256 51 94 188 51 51 51 51 51 51 51 51 51 51 51 51 51 51 145 119 51 51 51 51 51 51 196 127 110 110 110 110 110 110 110 110 110 110 110 110 110 110 110 127 196 213 162 51 51 51 51 51 51 51 51 51 51 51 51 51 119 205 196 196 127 127 127 127 127 127 127 154 256 256 256 256 256 256 
256 256 256 256 256 256 256 256 256 256 256 256 256 256 145 170 51 51 51 51 51 51 51 51 51 51 51 51 51 51 51 94 145 51 51 51 51 51 51 196 110 110 110 110 110 110 110 110 110 110 110 110 110 110 110 110 110 110 110 162 213 162 102 51 51 51 51 51 51 51 51 51 51 162 110 127 196 213 196 196 196 196 196 196 256 256 256 256 256 256 256 
256 256 256 256 256 256 256 256 256 256 256 256 256 256 154 119 51 51 51 51 51 51 51 51 51 51 51 51 51 51 51 51 162 51 51 51 51 51 51 188 145 110 110 110 110 110 110 110 110 110 110 110 110 110 110 110 110 110 110 110 110 145 213 188 119 51 51 51 51 51 51 51 119 196 110 110 110 110 110 162 213 162 162 188 256 256 256 256 256 256 256 
256 256 256 256 256 256 256 256 256 256 256 256 256 256 145 51 51 51 51 51 51 51 51 51 51 51 51 51 51 51 51 51 145 51 51 51 51 51 51 162 162 110 110 110 110 110 110 110 110 110 110 110 110 110 110 110 110 110 110 110 110 110 110 110 162 162 145 119 94 102 68 145 196 127 110 110 145 145 127 110 110 110 145 256 256 256 256 256 256 256 256 
256 256 256 256 256 256 256 256 256 256 256 256 256 154 51 51 51 51 51 51 51 51 51 51 51 51 51 51 51 51 51 51 162 51 51 51 51 51 51 145 196 110 110 110 110 110 110 110 110 110 110 110 110 110 110 110 110 110 110 110 110 110 110 110 110 110 127 145 196 213 196 162 110 110 110 110 110 162 213 239 205 196 162 256 256 256 256 256 256 256 256 
256 256 256 256 256 256 256 256 256 256 256 256 256 119 51 51 51 51 51 51 51 51 51 51 51 51 51 51 51 51 51 51 145 51 51 51 51 51 51 68 213 110 110 110 110 110 110 110 110 110 110 110 110 110 110 110 110 110 110 110 110 110 110 127 162 196 145 110 110 110 110 110 110 110 110 110 110 110 110 127 110 162 256 256 256 256 256 256 256 256 256 
256 256 256 256 256 256 256 256 256 256 256 256 162 51 51 51 51 51 51 51 51 51 51 51 51 51 51 51 51 51 51 51 162 51 51 51 51 51 51 51 205 110 110 110 110 110 110 110 110 110 110 110 110 110 110 110 110 110 110 110 110 110 110 110 110 127 196 213 162 110 110 110 110 145 196 127 110 110 110 110 110 188 256 256 256 256 256 256 256 256 256 
256 256 256 256 256 256 256 256 256 256 256 256 119 51 51 51 51 51 51 51 51 51 51 51 51 51 51 51 51 51 51 51 145 51 51 51 51 51 51 51 188 145 110 110 110 110 110 110 110 110 110 110 110 110 110 110 110 110 110 110 110 110 110 110 110 110 110 110 196 213 196 145 127 110 213 196 162 162 196 213 256 103 256 256 256 256 256 256 256 256 256 
256 256 256 256 256 256 256 256 256 256 256 162 76 51 51 51 51 51 51 51 51 51 51 51 51 51 51 51 51 51 51 68 145 51 51 51 51 51 51 51 119 162 110 110 110 110 110 110 110 110 110 110 110 110 110 110 110 110 110 110 110 110 110 110 110 145 127 110 110 110 110 162 162 145 145 127 110 110 110 162 103 256 256 256 256 256 256 256 256 256 256 
256 256 256 256 256 256 256 256 256 256 256 162 51 51 51 51 51 51 51 51 51 51 51 51 51 51 51 51 51 51 51 119 119 51 51 51 51 51 51 51 51 196 110 110 110 110 110 110 110 110 110 110 110 110 110 110 110 110 110 110 110 110 110 110 110 110 196 213 145 110 110 110 110 110 110 127 135 110 145 256 256 256 256 256 256 256 256 256 256 256 256 
256 256 256 256 256 256 256 256 256 256 162 94 51 51 51 51 51 51 51 51 51 51 51 51 51 51 51 51 51 51 51 145 94 51 51 51 51 51 51 51 51 145 162 110 110 110 110 110 110 110 110 110 110 110 110 110 110 110 110 110 110 110 110 110 110 110 110 145 196 162 110 127 196 213 110 110 110 119 256 256 256 256 256 256 256 256 256 256 256 256 256 
256 256 256 256 256 256 256 256 256 256 162 51 51 51 51 51 51 51 51 51 51 51 51 51 51 51 51 51 51 51 51 162 51 51 51 51 51 51 51 51 51 51 145 145 110 110 110 110 110 110 110 110 110 110 110 110 110 110 110 110 110 110 110 110 110 110 110 110 110 110 127 110 145 196 162 110 119 256 256 256 256 256 256 256 256 256 256 256 256 256 256 
256 256 256 256 256 256 256 256 256 162 119 51 51 51 51 51 51 51 51 51 51 51 51 51 51 51 51 51 51 51 51 170 51 51 51 51 51 51 51 51 51 51 51 119 145 110 110 110 110 110 110 110 110 110 110 110 110 110 110 110 110 110 110 110 110 110 110 110 110 110 110 110 110 110 110 119 256 256 256 256 256 256 256 256 256 256 256 256 256 256 256 
256 256 256 256 256 256 256 256 256 188 51 51 51 51 51 51 51 51 51 51 51 51 51 51 51 51 51 51 51 51 119 162 51 51 51 51 51 51 51 51 51 51 51 51 119 196 110 110 110 110 110 110 110 110 110 110 110 110 110 110 110 110 110 110 110 110 213 196 213 145 145 127 110 110 154 256 256 256 256 256 256 256 256 256 256 256 256 256 256 256 256 
256 256 256 256 256 256 256 256 103 145 51 51 51 51 51 51 51 51 51 51 51 51 51 51 51 51 51 51 51 51 162 188 162 119 76 51 51 51 51 51 51 51 51 51 51 188 213 127 110 110 110 110 110 110 110 110 110 110 110 110 110 110 110 110 110 110 110 110 127 110 110 110 162 154 256 256 256 256 256 256 256 256 256 256 256 256 256 256 256 256 256 
256 256 256 256 256 256 256 256 205 51 51 51 51 51 51 51 51 51 51 51 51 51 51 51 51 51 51 51 51 94 103 256 256 103 154 129 162 145 119 119 102 119 162 188 162 119 119 188 145 110 110 110 110 110 110 110 110 110 110 110 110 110 196 213 110 110 110 110 110 110 110 196 103 256 256 256 256 256 256 256 256 256 256 256 256 256 256 256 256 256 256 
256 256 256 256 256 256 256 256 162 51 51 51 51 51 51 51 51 51 51 51 51 51 51 51 51 51 51 51 51 145 256 256 256 256 256 256 256 256 256 256 256 256 256 205 102 51 51 51 119 145 127 110 110 110 110 110 110 110 110 110 127 110 110 162 110 110 110 110 110 196 256 256 162 154 162 154 256 256 256 256 256 256 256 256 256 256 256 256 256 256 256 
256 256 256 256 256 256 256 162 94 51 51 51 51 51 51 51 51 51 51 51 51 51 51 51 51 51 51 51 51 154 256 256 256 256 256 256 256 256 256 256 256 256 256 256 256 162 111 51 51 51 102 170 110 110 110 110 110 110 110 110 196 110 110 110 110 110 127 162 213 162 205 188 94 51 51 145 154 256 256 256 256 256 256 256 256 256 256 256 256 256 256 
256 256 256 256 256 256 256 188 51 51 51 51 51 51 51 51 51 51 51 51 51 51 51 51 51 51 51 51 162 256 256 256 256 256 256 256 256 256 256 256 256 256 256 256 256 256 154 188 68 51 51 51 119 145 110 110 110 110 110 110 110 110 110 110 110 213 196 162 76 119 145 51 51 51 51 51 188 256 256 256 256 256 256 256 256 256 256 256 256 256 256 
256 256 256 256 256 256 103 145 51 51 51 51 51 51 51 51 51 51 51 51 51 51 51 51 51 51 51 94 111 256 256 256 256 256 256 256 256 256 256 256 256 256 256 256 256 256 256 103 213 119 51 51 51 51 119 162 145 127 110 110 110 110 162 196 205 145 51 51 68 145 51 51 51 51 51 51 162 103 256 256 256 256 256 256 256 256 256 256 256 256 256 
256 256 256 256 256 256 162 94 51 51 51 51 51 51 51 51 51 51 51 51 51 51 51 51 51 51 51 162 256 256 256 256 256 256 256 256 256 256 256 256 256 256 256 256 256 256 256 256 256 205 162 51 51 51 51 51 162 196 196 213 196 188 239 205 51 51 51 51 119 94 51 51 51 51 51 51 94 162 256 256 256 256 256 256 256 256 256 256 256 256 256 
256 256 256 256 256 256 162 51 51 51 51 51 51 51 51 51 51 51 51 51 51 51 51 51 51 51 145 256 256 256 256 256 256 256 256 256 256 256 256 256 256 256 256 256 256 256 256 256 256 256 162 205 51 51 51 51 51 51 94 119 51 68 162 51 51 51 51 51 102 51 51 51 51 51 51 51 51 188 256 256 256 256 256 256 256 256 256 256 256 256 256 
256 256 256 256 256 256 119 51 51 51 51 51 51 51 51 51 51 51 51 51 51 51 51 51 51 119 256 256 256 256 256 256 256 256 256 256 256 256 256 256 256 256 256 256 256 256 256 256 256 256 256 137 205 51 51 51 51 51 51 51 51 119 102 51 51 51 51 94 119 51 51 51 51 51 51 51 51 162 256 256 256 256 256 256 256 256 256 256 256 256 256 
256 256 256 256 256 154 51 51 51 51 51 51 51 51 51 51 51 51 51 51 51 51 51 51 94 129 256 256 256 256 256 256 256 256 256 256 256 256 256 256 256 256 256 256 256 256 256 256 256 256 256 256 129 188 51 51 51 51 51 51 51 76 51 51 51 51 51 119 94 51 51 51 51 51 51 51 51 162 256 256 256 256 256 256 256 256 256 256 256 256 256 
256 256 256 256 256 162 51 51 51 51 51 51 51 51 51 51 51 51 51 51 51 51 51 102 162 256 256 256 256 256 256 256 256 256 256 256 256 256 256 256 256 256 256 256 256 256 256 256 256 256 256 256 256 129 145 51 51 51 51 51 51 51 51 51 51 51 51 145 51 51 51 51 51 51 51 51 68 154 256 256 256 256 256 256 256 256 256 256 256 256 256 
256 256 256 256 256 94 51 51 51 51 51 51 51 51 51 51 51 51 51 51 51 51 51 162 256 256 256 256 256 256 256 256 256 256 256 256 256 256 256 256 256 256 256 256 256 256 256 256 256 256 256 256 256 256 162 119 51 51 51 51 51 51 51 51 51 51 68 145 51 51 51 51 51 51 51 51 94 103 256 256 256 256 256 256 256 256 256 256 256 256 256 
256 256 256 256 256 51 51 51 51 51 51 51 51 51 51 51 51 51 51 51 51 51 162 35 256 256 256 256 256 256 256 256 256 256 256 256 256 256 256 256 256 256 256 256 256 256 256 256 256 256 256 256 256 256 256 188 94 51 51 51 51 51 51 51 51 51 119 145 51 51 51 51 51 51 51 51 119 256 256 256 256 256 256 256 256 256 256 256 256 256 256 
256 256 256 256 68 51 51 51 51 51 51 51 51 51 51 51 51 51 51 51 51 162 256 256 256 256 256 256 256 256 256 256 256 256 256 256 256 256 256 256 256 256 256 256 256 256 256 256 256 256 256 256 256 256 256 256 162 68 51 51 51 51 51 51 51 51 162 94 51 51 51 51 51 51 51 51 162 256 256 256 256 256 256 256 256 256 256 256 256 256 256 
256 256 256 256 76 51 51 51 51 51 51 51 51 51 51 51 51 51 51 51 162 256 256 256 256 256 256 256 256 256 256 256 256 256 256 256 256 256 256 256 256 256 256 256 256 256 256 256 256 256 256 256 256 256 256 256 256 162 51 51 51 51 51 51 51 51 170 51 51 51 51 51 51 51 51 119 103 256 256 256 256 256 256 256 256 256 256 256 256 256 256 
256 256 256 35 51 51 51 51 51 51 51 51 51 51 51 51 51 51 51 162 256 256 256 256 256 256 256 256 256 256 256 256 256 256 256 256 256 256 256 256 256 256 256 256 256 256 256 256 256 256 256 256 256 256 256 256 256 256 145 51 51 51 51 51 51 119 145 51 51 51 51 51 51 51 51 188 256 256 256 256 256 256 256 256 256 256 256 256 256 256 256 
256 256 256 51 51 51 51 51 51 51 51 51 51 51 51 51 51 51 162 256 256 256 256 256 256 256 256 256 256 256 256 256 256 256 256 256 256 256 256 256 256 256 256 256 256 256 256 256 256 256 256 256 256 256 256 256 256 256 256 111 51 51 51 51 51 145 68 51 51 51 51 51 51 51 162 256 256 256 256 256 256 256 256 256 256 256 256 256 256 256 256 
256 256 256 51 51 51 51 51 51 51 51 51 51 51 51 51 51 205 188 103 256 256 256 256 256 256 256 256 256 256 256 256 256 256 256 256 256 256 256 256 256 256 256 256 256 256 256 256 256 256 256 256 256 256 256 256 256 256 256 256 94 51 51 51 119 145 51 51 51 51 51 51 51 145 129 256 256 256 256 256 256 256 256 256 256 256 256 256 256 256 256 
256 256 35 51 51 51 51 51 51 51 51 51 51 51 51 51 162 170 145 162 205 239 213 162 256 256 256 256 256 256 256 256 256 256 256 256 256 256 256 256 256 256 256 256 256 256 256 256 256 256 256 256 256 256 256 256 256 256 256 256 256 119 51 51 205 94 51 51 51 51 51 51 119 162 256 256 256 256 256 256 256 256 256 256 256 256 256 256 256 256 256 
256 256 68 51 51 51 51 51 51 51 51 51 51 51 68 162 102 51 51 51 51 51 94 162 205 9 256 256 256 256 256 256 256 256 256 256 256 256 256 256 256 256 256 256 256 256 256 256 256 256 256 256 256 256 256 256 256 256 256 256 256 256 119 51 188 51 51 51 51 51 51 119 137 256 256 256 256 256 256 256 256 256 256 256 256 256 256 256 256 256 256 
256 256 51 51 51 51 51 51 51 51 51 51 51 94 145 51 51 51 51 51 51 51 51 51 94 162 256 256 256 256 256 256 256 256 256 256 256 256 256 256 256 256 256 256 256 256 256 256 256 256 256 256 256 256 256 256 256 256 256 256 256 256 256 162 205 145 51 51 51 94 162 103 256 256 256 256 256 256 256 256 256 256 256 256 256 256 256 256 256 256 256 
256 111 51 51 51 51 51 51 51 51 51 68 102 119 51 51 51 51 51 51 51 51 51 51 51 145 256 256 256 256 256 256 256 256 256 256 256 256 256 256 256 256 256 256 256 256 256 256 256 256 256 256 256 256 256 256 256 256 256 256 256 256 256 256 213 256 188 162 162 154 256 256 256 256 256 256 256 256 256 256 256 256 256 256 256 256 256 256 256 256 256 
1 119 51 51 51 51 51 51 51 51 102 145 94 51 51 51 51 51 51 51 51 51 51 51 51 119 256 256 256 256 256 256 256 256 256 256 256 256 256 256 256 256 256 256 256 256 256 256 256 256 256 256 256 256 256 256 256 256 256 256 256 256 256 256 256 256 27 256 256 256 256 256 256 256 256 256 256 256 256 256 256 256 256 256 256 256 256 256 256 256 256 
256 76 51 51 51 51 51 51 51 51 51 51 51 51 51 51 51 51 51 51 51 51 51 51 51 145 256 256 256 256 256 256 256 256 256 256 256 256 256 256 256 256 256 256 256 256 256 256 256 256 256 256 256 256 256 256 256 256 256 256 256 256 256 256 256 256 256 256 256 256 256 256 256 256 256 256 256 256 256 256 256 256 256 256 256 256 256 256 256 256 256 
145 51 51 51 51 51 51 51 51 51 51 51 51 51 51 51 51 51 51 51 51 51 51 51 94 162 256 256 256 256 256 256 256 256 256 256 256 256 256 256 256 256 256 256 256 256 256 256 256 256 256 256 256 256 256 256 256 256 256 256 256 256 256 256 256 256 256 256 256 256 256 256 256 256 256 256 256 256 256 256 256 256 256 256 256 256 256 256 256 256 256 
162 94 51 51 51 51 51 51 51 51 51 51 51 51 51 51 51 51 51 51 51 51 51 119 188 256 256 256 256 256 256 256 256 256 256 256 256 256 256 256 256 256 256 256 256 256 256 256 256 256 256 256 256 256 256 256 256 256 256 256 256 256 256 256 256 256 256 256 256 256 256 256 256 256 256 256 256 256 256 256 256 256 256 256 256 256 256 256 256 256 256 
256 162 51 51 51 51 51 51 51 51 51 51 51 51 51 51 51 51 51 51 51 94 162 154 256 256 256 256 256 256 256 256 256 256 256 256 256 256 256 256 256 256 256 256 256 256 256 256 256 256 256 256 256 256 256 256 256 256 256 256 256 256 256 256 256 256 256 256 256 256 256 256 256 256 256 256 256 256 256 256 256 256 256 256 256 256 256 256 256 256 256 
256 256 111 94 51 51 51 51 51 51 51 51 51 51 51 51 51 51 51 119 162 111 256 256 256 256 256 256 256 256 256 256 256 256 256 256 256 256 256 256 256 256 256 256 256 256 256 256 256 256 256 256 256 256 256 256 256 256 256 256 256 256 256 256 256 256 256 256 256 256 256 256 256 256 256 256 256 256 256 256 256 256 256 256 256 256 256 256 256 256 256 
256 256 256 256 103 162 162 162 102 94 68 51 68 51 68 102 119 162 162 103 256 256 256 256 256 256 256 256 256 256 256 256 256 256 256 256 256 256 256 256 256 256 256 256 256 256 256 256 256 256 256 256 256 256 256 256 256 256 256 256 256 256 256 256 256 256 256 256 256 256 256 256 256 256 256 256 256 256 256 256 256 256 256 256 256 256 256 256 256 256 256 
256 256 256 256 256 256 256 103 154 162 205 188 205 188 205 154 103 256 256 256 256 256 256 256 256 256 256 256 256 256 256 256 256 256 256 256 256 256 256 256 256 256 256 256 256 256 256 256 256 256 256 256 256 256 256 256 256 256 256 256 256 256 256 256 256 256 256 256 256 256 256 256 256 256 256 256 256 256 256 256 256 256 256 256 256 256 256 256 256 256 256 
